 <svg xmlns="http://www.w3.org/2000/svg" viewBox="0 0 200 200">
  <g fill="none" fill-rule="evenodd">
    <path fill="#030202" d="M148 112.3v1.9c0 .8.2 1 1 1.2 1 .2 1.9.1 2.8 0 1.1-.1 1.3-.3 1.3-1.5V94.3c0-1.1-.2-1.3-1.4-1.5h-3.1c-1.2.2-1.4.4-1.4 1.6v12.4c0 .4.1.7-.2 1-.8.9-1.5 1.7-2.5 2.3-2.2 1.4-4.5.4-5.1-2l-.3-2.3V94.4c0-1.2-.2-1.4-1.4-1.6a16 16 0 0 0-3.2 0c-1 .2-1.3.4-1.3 1.4V107c0 1 .1 1.8.3 2.8.5 2.9 2 5 5 5.8a9 9 0 0 0 8-1.9l1.6-1.4zm21-10.3V89.7c0-1.1 0-1 1.1-1h6.6c1 0 1.1-.2 1.3-1.2.2-1 .2-2.1 0-3.2-.2-.9-.3-1-1.3-1h-22c-.8 0-1 .2-1.2 1.1-.2 1-.2 2 0 3 .1 1 .3 1.3 1.5 1.3h6.7c.5 0 .8 0 .7.6V114c0 1.2.2 1.5 1.4 1.7h4c1-.2 1.2-.5 1.3-1.6V102zm-42.2 3.8v-6.6c0-1.3-.7-2-2-2h-10.3c-.9 0-1.1.3-1.3 1.1v2.7c.2 1 .4 1.2 1.3 1.2h5c.5 0 .7.1.7.7v6.2c0 .5-.2.7-.6.9a10 10 0 0 1-4.8.6 8.8 8.8 0 0 1-7.8-5.6 14.4 14.4 0 0 1-.4-9.8 9.5 9.5 0 0 1 9-7c3.3-.2 6.3.7 9.1 2.2l1 .5c.4.2.7 0 .8-.3l.3-.9v-3c-.1-.7-.5-1.3-1.2-1.7a10 10 0 0 0-2-1 21.8 21.8 0 0 0-13-.6A14.4 14.4 0 0 0 100 93.6c-1 3.3-1.2 6.8-.5 10.2a13.8 13.8 0 0 0 10.8 11.7c5 1.3 9.9.7 14.7-1 1.3-.4 1.7-1 1.7-2.4v-6.3zm11.4-28h46.6c1.5 0 1.3 0 1.5 1.2.8 4 1.4 8 1.8 12l.3 3.8a85 85 0 0 1-.2 11.6c-.4 3.6-.8 7.2-1.4 10.7a228 228 0 0 1-.8 4.8c-.2.8-.2.8-1 .8H92c-1.4 0-1.4.1-1.4-1.3v-15.8c0-2.6.2-5.3 0-8V78.7c0-.8 0-.8.8-.8h46.8z"></path>
    <path fill="#E2007A" d="M18 70.9c.1-.6.4-1 .6-1.5A74.5 74.5 0 0 1 74 27.2c2.8-.5 5.8-.8 8.7-1 .9 0 .9 0 .9.8v43c0 1 0 .9-1 .9H18.1zm.2 58.6c.4-.2.8-.2 1.2-.2h63.5c.5 0 .7.1.7.7v42.9c0 1.2.2 1.2-1.2 1.1a76.4 76.4 0 0 1-48.5-21.7A74.3 74.3 0 0 1 18.8 131l-.6-1.5"></path>
    <path fill="#E2027B" d="M60.3 99.7c.4.3.6.7.8 1l8.7 13.8c.4.5.8 1 1.5 1.1 1.7.2 3.4.3 5 0 1-.2 1.2-.7.8-1.6a7 7 0 0 0-1-1.9L67.4 99c-.6-.8-.6-.8 0-1.5L75.2 87c.5-.6 1-1.2 1.3-2 .5-1 .3-1.6-.9-1.8a15 15 0 0 0-4.4 0c-.7 0-1.2.4-1.6 1L61 96.8l-.7 1V84.6c0-1-.2-1-1.1-1.3-1.1-.3-2.3-.2-3.4-.2l-1.3.2c-.7.2-.8.4-.9 1.2v30.1c0 .4.3.7.7.9l.8.2h3.7c1.2-.2 1.4-.5 1.4-1.7v-13l.1-1.2M43 98.1c.2-.3.5-.3.7-.5 1.7-1 2.8-2.4 3.2-4.3.2-1 .2-2.1.1-3.2a6.4 6.4 0 0 0-3.2-5 10 10 0 0 0-4-1.5c-4.2-.6-8.3-.3-12.5-.3-1 0-1.7.7-1.7 1.8v28.5c0 1.3.6 2 2 2 3.7 0 7.5.2 11.3-.1a14 14 0 0 0 4.8-1.3 8.6 8.6 0 0 0 5.3-8.6c0-3.5-2-6.2-5.5-7.3-.1 0-.4 0-.5-.2m6.5-20.4h32.9c1.3 0 1.2-.1 1.2 1.2v42.9c0 .6-.2.8-.7.7H16.8c-1.4 0-1.2.1-1.6-1.1a70.6 70.6 0 0 1 0-42.6c.3-1 .3-1 1.3-1h33"></path>
    <path fill="#000" d="M184.1 70.8c-.3.2-.6.1-1 .1H91.7c-1 0-1 0-1-1V52.5c0-.4 0-.7.6-.6h84.3c.5 0 .7.2 1 .6a99.7 99.7 0 0 1 7.5 17.6v.6m0 58.7c-.4 1.7-1 3.3-1.6 5-1.7 4.4-3.8 8.8-6.1 13-.4.6-.7.8-1.3.8H91c-.3 0-.4-.1-.4-.4v-17.6c0-1-.1-1 1-1h91.6c.3 0 .6 0 1 .2"></path>
    <path fill="#010101" d="M171.6 45.1H91.2c-.5.1-.6-.2-.6-.7V27c0-.5 0-.8.6-.7H154c.7 0 1.3.2 1.9.7 5.7 5.3 10.8 11.2 15.4 17.5.2.2.4.4.3.7m-.7 110v.5c-4 5.7-8.1 11.3-13 16.2l-2 1.8c-.4.4-.8.6-1.3.5H91.2c-.5 0-.6-.2-.6-.7v-17.6c0-.7 0-.7.7-.7H171zM90.7 200c-.2-.4-.1-.7-.1-1v-17.6c0-.3.1-.4.4-.4h54.4l1.2.1A101.9 101.9 0 0 1 90.7 200m55.5-180.6H91.6c-1.1 0-1 .2-1-1V1c0-.4.2-.5.5-.5l5.2.3a101.8 101.8 0 0 1 49.3 18l.6.6"></path>
    <path fill="#FFF" d="M126.8 105.8v6.3c0 1.5-.4 2-1.7 2.5a25.2 25.2 0 0 1-14.7 1 13.8 13.8 0 0 1-10.8-11.8c-.7-3.4-.6-6.9.5-10.2 1.7-5.3 5.2-8.7 10.5-10.2 4.3-1.2 8.7-1 13 .5l2 1c.7.5 1.1 1.1 1.2 1.9v2.9l-.3.9c-.1.3-.4.5-.8.3l-1-.5a16.7 16.7 0 0 0-9-2.3 9.5 9.5 0 0 0-9.1 7c-1 3.4-1 6.7.4 9.9a8.8 8.8 0 0 0 7.8 5.6c1.6.2 3.2 0 4.8-.6.4-.2.6-.4.6-.9V103c0-.6-.2-.7-.7-.7h-5c-.9 0-1.1-.2-1.3-1.2v-2.7c.2-.8.4-1 1.3-1h10.3c1.3 0 2 .6 2 2v6.5M169 102v12c0 1.1-.2 1.4-1.3 1.5-1.3.2-2.7.2-4 0-1.2-.1-1.4-.4-1.4-1.5V89.2c0-.5-.2-.7-.7-.7H155c-1.2 0-1.4-.1-1.5-1.2-.2-1-.2-2 0-3 .1-.9.4-1.1 1.3-1.1h22c.9 0 1 .1 1.2 1 .2 1.1.2 2.2 0 3.2s-.4 1.2-1.3 1.2H170c-1.1 0-1-.1-1 1V102m-21 10.3l-1.7 1.4c-2.3 2-5 2.6-7.9 1.9-3-.8-4.5-3-5-5.8l-.3-2.8V94.2c0-1 .2-1.2 1.3-1.3 1-.2 2.2-.2 3.2 0 1.2 0 1.4.3 1.4 1.5v11.4c0 .7 0 1.5.3 2.3.6 2.4 3 3.4 5 2 1-.6 1.8-1.4 2.6-2.3.3-.3.2-.6.2-1V94.4c0-1.2.2-1.4 1.4-1.5 1-.2 2-.2 3.1 0 1.2 0 1.4.3 1.4 1.4V114c0 1.2-.2 1.4-1.3 1.5-1 .1-1.9.2-2.8 0-.8-.2-1-.4-1-1.2v-2M32 92.4V96c0 .3.1.6.5.5H37c2-.2 3.4-1.9 3.5-4 0-2.3-1-3.7-3.2-4.1-1.5-.3-3-.1-4.6-.2-.6 0-.7.2-.7.7v3.4m0 13.7v3.9c0 .4 0 .7.6.7 1.9 0 3.8.1 5.7-.1 2.8-.4 4.4-2.9 3.7-5.7-.5-1.8-1.9-3-4-3.3-1.8-.2-3.5-.1-5.3-.1-.7 0-.7 0-.7.7v3.9m11-8c.1.3.4.3.5.3a7.6 7.6 0 0 1 5.5 7.3c0 4-1.7 6.9-5.3 8.6a14 14 0 0 1-4.8 1.3c-3.8.3-7.6.1-11.3.1-1.4 0-2-.7-2-2V85.1c0-1.1.6-1.8 1.7-1.8 4.2 0 8.3-.3 12.4.3 1.5.2 2.9.6 4.1 1.4 1.9 1.2 3 3 3.2 5.1.1 1.1.1 2.1-.1 3.2a6.5 6.5 0 0 1-3.2 4.3c-.2.2-.5.2-.7.5m17.3 1.6V114c0 1.2-.3 1.5-1.5 1.7h-3.7l-.8-.2c-.4-.2-.7-.5-.7-1v-30c0-.8.2-1 1-1.2l1.2-.2c1.1 0 2.3 0 3.4.2.9.2 1 .4 1 1.4v11.9l.1 1.2.7-1 8.6-12.5c.4-.6.9-1 1.6-1 1.5-.2 3-.3 4.4 0 1.2.2 1.4.8.9 1.9-.3.7-.8 1.3-1.3 2l-7.8 10.2c-.6.7-.6.7 0 1.5l8.7 13.2a7 7 0 0 1 1 1.9c.4.9.2 1.4-.8 1.5a14 14 0 0 1-5 .1c-.7 0-1.1-.6-1.5-1.1l-8.7-13.8c-.2-.3-.4-.7-.8-1"></path>
    <path fill="#E2027B" d="M32 106v-4c0-.7 0-.7.7-.7 1.8 0 3.5-.1 5.3.1 2.1.3 3.5 1.5 4 3.3.7 2.8-.9 5.3-3.7 5.7-2 .2-3.8 0-5.7 0-.5.1-.6-.2-.6-.6v-4m0-13.6V89c0-.5 0-.7.7-.7 1.5 0 3-.1 4.6.2 2.2.4 3.3 1.8 3.2 4 0 2.2-1.5 3.9-3.5 4-1.5.2-3 .1-4.5.1-.4 0-.5-.2-.5-.5v-3.7"></path>
  </g>
</svg>
